<svg width="22" height="22" viewBox="0 0 22 22" fill="none" xmlns="http://www.w3.org/2000/svg">
<path d="M7.33333 2.75C4.80242 2.75 2.75 4.80242 2.75 7.33333V14.6667C2.75 17.1976 4.80242 19.25 7.33333 19.25H14.6667C17.1976 19.25 19.25 17.1976 19.25 14.6667V7.33333C19.25 4.80242 17.1976 2.75 14.6667 2.75H7.33333ZM16.5 4.58333C17.006 4.58333 17.4167 4.994 17.4167 5.5C17.4167 6.006 17.006 6.41667 16.5 6.41667C15.994 6.41667 15.5833 6.006 15.5833 5.5C15.5833 4.994 15.994 4.58333 16.5 4.58333ZM11 6.41667C13.5309 6.41667 15.5833 8.46908 15.5833 11C15.5833 13.5309 13.5309 15.5833 11 15.5833C8.46908 15.5833 6.41667 13.5309 6.41667 11C6.41667 8.46908 8.46908 6.41667 11 6.41667ZM11 8.25C10.2707 8.25 9.57118 8.53973 9.05546 9.05546C8.53973 9.57118 8.25 10.2707 8.25 11C8.25 11.7293 8.53973 12.4288 9.05546 12.9445C9.57118 13.4603 10.2707 13.75 11 13.75C11.7293 13.75 12.4288 13.4603 12.9445 12.9445C13.4603 12.4288 13.75 11.7293 13.75 11C13.75 10.2707 13.4603 9.57118 12.9445 9.05546C12.4288 8.53973 11.7293 8.25 11 8.25Z" fill="white"/>
</svg>
