<svg width="18" height="18" viewBox="0 0 18 18" fill="none" xmlns="http://www.w3.org/2000/svg">
<path d="M14.76 1.44H3.24C2.2464 1.44 1.44 2.2464 1.44 3.24V14.76C1.44 15.7536 2.2464 16.56 3.24 16.56H14.76C15.7536 16.56 16.56 15.7536 16.56 14.76V3.24C16.56 2.2464 15.7536 1.44 14.76 1.44ZM6.12 7.2V14.04H3.96V7.2H6.12ZM3.96 5.2092C3.96 4.7052 4.392 4.32 5.04 4.32C5.688 4.32 6.0948 4.7052 6.12 5.2092C6.12 5.7132 5.7168 6.12 5.04 6.12C4.392 6.12 3.96 5.7132 3.96 5.2092ZM14.04 14.04H11.88C11.88 14.04 11.88 10.7064 11.88 10.44C11.88 9.72 11.52 9 10.62 8.9856H10.5912C9.72 8.9856 9.36 9.7272 9.36 10.44C9.36 10.7676 9.36 14.04 9.36 14.04H7.2V7.2H9.36V8.1216C9.36 8.1216 10.0548 7.2 11.4516 7.2C12.8808 7.2 14.04 8.1828 14.04 10.1736V14.04Z" fill="white"/>
</svg>
